<?xml version="1.0" standalone="no"?>
<!DOCTYPE svg PUBLIC "-//W3C//DTD SVG 20010904//EN"
 "http://www.w3.org/TR/2001/REC-SVG-20010904/DTD/svg10.dtd">
<svg version="1.0" xmlns="http://www.w3.org/2000/svg"
 width="96.000000pt" height="96.000000pt" viewBox="0 0 96.000000 96.000000"
 preserveAspectRatio="xMidYMid meet">
<metadata>
Created by potrace 1.14, written by Peter Selinger 2001-2017
</metadata>
<g transform="translate(0.000000,96.000000) scale(0.100000,-0.100000)"
fill="#000000" stroke="none">
<path d="M77 953 c-8 -13 -6 -413 2 -413 4 0 34 30 66 66 98 111 218 199 388
285 l72 36 -65 15 c-70 16 -455 25 -463 11z"/>
<path d="M685 819 c-252 -100 -428 -234 -401 -304 8 -22 73 -19 163 9 156 49
223 61 305 57 15 0 42 -14 60 -30 28 -25 32 -34 31 -75 -2 -46 -33 -127 -60
-154 -7 -7 -13 -16 -13 -20 0 -18 -134 -145 -210 -200 -47 -34 -89 -66 -95
-70 -5 -4 -19 -12 -30 -17 -38 -17 49 -17 116 0 218 57 338 214 344 449 2 105
-8 160 -44 241 -26 57 -88 136 -107 134 -5 0 -31 -9 -59 -20z"/>
<path d="M155 497 c-17 -17 -43 -42 -58 -54 -24 -20 -37 -53 -21 -53 11 0 84
83 100 113 18 34 16 34 -21 -6z"/>
<path d="M425 360 c-38 -11 -110 -32 -160 -48 -59 -19 -108 -28 -142 -27 l-51
2 -1 -139 c-1 -117 2 -140 15 -145 28 -11 216 78 339 161 144 97 191 179 118
207 -32 12 -35 11 -118 -11z"/>
</g>
</svg>
